# xmcd
#
# Track frame offsets: 
#        150
#        17694
#        39934
#        54749
#        69193
#        86344
#        102791
#        116728
#        136079
#        148728
#        176569
#        194349
#        210344
#        231346
#
# Disc length: 3266 seconds
#
# Revision: 1
# Processed by: cddbd v1.5.2PL0 Copyright (c) Steve Scherf et al.
# Submitted via: ExactAudioCopyFreeDBPlugin 1.0
#
DISCID=b80cc00e
DTITLE=KALO - Dear John,
DYEAR=2016
DGENRE=Blues
TTITLE0=Dear John
TTITLE1=Treat Me Bad
TTITLE2=March to the Light
TTITLE3=Marie
TTITLE4=HeartBreak
TTITLE5=Oh Father
TTITLE6=Down Down Down
TTITLE7=Blue Chevy
TTITLE8=Looking for Me
TTITLE9=Once I Had A Heart
TTITLE10=Goodbye
TTITLE11=Like It Or Not
TTITLE12=Tender Love
TTITLE13=Can't Sleep at Night
EXTD=
EXTT0=
EXTT1=
EXTT2=
EXTT3=
EXTT4=
EXTT5=
EXTT6=
EXTT7=
EXTT8=
EXTT9=
EXTT10=
EXTT11=
EXTT12=
EXTT13=
PLAYORDER=
